<?xml version="1.0" encoding="UTF-8" standalone="no"?>
<!-- Created with Inkscape (http://www.inkscape.org/) -->

<svg
   xmlns:dc="http://purl.org/dc/elements/1.1/"
   xmlns:cc="http://creativecommons.org/ns#"
   xmlns:rdf="http://www.w3.org/1999/02/22-rdf-syntax-ns#"
   xmlns:svg="http://www.w3.org/2000/svg"
   xmlns="http://www.w3.org/2000/svg"
   xmlns:xlink="http://www.w3.org/1999/xlink"
   xmlns:sodipodi="http://sodipodi.sourceforge.net/DTD/sodipodi-0.dtd"
   xmlns:inkscape="http://www.inkscape.org/namespaces/inkscape"
   width="164.04167mm"
   height="119.0625mm"
   viewBox="0 0 164.04167 119.0625"
   version="1.1"
   id="svg8"
   inkscape:version="0.92.4 (5da689c313, 2019-01-14)"
   sodipodi:docname="oricamera.svg">
  <defs
     id="defs2">
    <linearGradient
       inkscape:collect="always"
       id="linearGradient4551">
      <stop
         style="stop-color:#e68b08;stop-opacity:1;"
         offset="0"
         id="stop4547" />
      <stop
         style="stop-color:#8f5bfe;stop-opacity:1"
         offset="1"
         id="stop4549" />
    </linearGradient>
    <linearGradient
       inkscape:collect="always"
       xlink:href="#linearGradient4551"
       id="linearGradient4553"
       x1="90"
       y1="272.51968"
       x2="630"
       y2="392.51968"
       gradientUnits="userSpaceOnUse" />
  </defs>
  <sodipodi:namedview
     id="base"
     pagecolor="#ffffff"
     bordercolor="#666666"
     borderopacity="1.0"
     inkscape:pageopacity="0.0"
     inkscape:pageshadow="2"
     inkscape:zoom="1.4"
     inkscape:cx="433.81408"
     inkscape:cy="274.81458"
     inkscape:document-units="mm"
     inkscape:current-layer="layer1"
     showgrid="true"
     inkscape:window-width="1920"
     inkscape:window-height="1017"
     inkscape:window-x="-8"
     inkscape:window-y="-8"
     inkscape:window-maximized="1">
    <inkscape:grid
       type="xygrid"
       id="grid4518"
       originx="-18.520833"
       originy="-137.58338" />
  </sodipodi:namedview>
  <metadata
     id="metadata5">
    <rdf:RDF>
      <cc:Work
         rdf:about="">
        <dc:format>image/svg+xml</dc:format>
        <dc:type
           rdf:resource="http://purl.org/dc/dcmitype/StillImage" />
        <dc:title />
      </cc:Work>
    </rdf:RDF>
  </metadata>
  <g
     inkscape:label="Calque 1"
     inkscape:groupmode="layer"
     id="layer1"
     transform="translate(-18.520833,-40.354125)">
    <path
       style="opacity:1;fill:url(#linearGradient4553);fill-opacity:1;stroke:none;stroke-width:0.99999994px;stroke-linecap:butt;stroke-linejoin:miter;stroke-opacity:1"
       d="m 350,152.51953 c -30,0 -50,30 -50,50 v 30 h 160 v -30 c 0,-20 -20,-50 -50,-50 z m -190,50 c -20,0 -40,0 -40,20 v 10 h 80 v -10 c 0,-20 -20,-20 -40,-20 z m -50,40 c -30,0 -40,10 -40,40 v 280 c 0,30 10,40 40,40 h 540.00001 c 30,0 40,-10 40,-40 v -280 c 0,-30 -10,-40 -40,-40 z m 270,20 c 88.36556,0 160,71.63444 160,160 0,88.36556 -71.63444,160 -160,160 -88.36556,0 -160,-71.63444 -160,-160 0,-88.36556 71.63444,-160 160,-160 z m 0,20 c -82.84271,0 -140,57.15729 -140,140 0,82.84271 57.15729,140 140,140 82.84271,0 140.00001,-57.15729 140.00001,-140 0,-82.84271 -57.1573,-140 -140.00001,-140 z m 55,65 c 13.80712,0 25,11.19288 25,25 0,13.80712 -11.19288,25 -25,25 -13.80712,0 -25,-11.19288 -25,-25 0,-13.80712 11.19288,-25 25,-25 z"
       id="path4522"
       transform="scale(0.26458333)"
       inkscape:connector-curvature="0"
       sodipodi:nodetypes="ssccsssssccssssssssssssssssssssssssss" />
  </g>
</svg>
