<?xml version="1.0" encoding="UTF-8" standalone="no"?>
<!-- Created with Inkscape (http://www.inkscape.org/) -->

<svg
   xmlns:dc="http://purl.org/dc/elements/1.1/"
   xmlns:cc="http://creativecommons.org/ns#"
   xmlns:rdf="http://www.w3.org/1999/02/22-rdf-syntax-ns#"
   xmlns:svg="http://www.w3.org/2000/svg"
   xmlns="http://www.w3.org/2000/svg"
   xmlns:xlink="http://www.w3.org/1999/xlink"
   xmlns:sodipodi="http://sodipodi.sourceforge.net/DTD/sodipodi-0.dtd"
   xmlns:inkscape="http://www.inkscape.org/namespaces/inkscape"
   width="194.06033mm"
   height="46.143536mm"
   viewBox="0 0 194.06033 46.143536"
   version="1.1"
   id="svg8"
   inkscape:version="0.92.4 (5da689c313, 2019-01-14)"
   sodipodi:docname="Orinoco.svg">
  <defs
     id="defs2">
    <linearGradient
       inkscape:collect="always"
       id="linearGradient860-9">
      <stop
         style="stop-color:#e68b08;stop-opacity:1;"
         offset="0"
         id="stop856" />
      <stop
         style="stop-color:#8f5bfe;stop-opacity:1"
         offset="1"
         id="stop858" />
    </linearGradient>
    <linearGradient
       inkscape:collect="always"
       xlink:href="#linearGradient860-9"
       id="linearGradient862"
       x1="35"
       y1="162.51968"
       x2="175"
       y2="192.51968"
       gradientUnits="userSpaceOnUse" />
  </defs>
  <sodipodi:namedview
     id="base"
     pagecolor="#ffffff"
     bordercolor="#666666"
     borderopacity="1.0"
     inkscape:pageopacity="0.0"
     inkscape:pageshadow="2"
     inkscape:zoom="1.979899"
     inkscape:cx="396.89923"
     inkscape:cy="72.882842"
     inkscape:document-units="mm"
     inkscape:current-layer="layer1"
     showgrid="true"
     inkscape:window-width="1920"
     inkscape:window-height="1017"
     inkscape:window-x="1912"
     inkscape:window-y="-8"
     inkscape:window-maximized="1">
    <inkscape:grid
       type="xygrid"
       id="grid815"
       originx="-7.4613267"
       originy="-221.61483" />
  </sodipodi:namedview>
  <metadata
     id="metadata5">
    <rdf:RDF>
      <cc:Work
         rdf:about="">
        <dc:format>image/svg+xml</dc:format>
        <dc:type
           rdf:resource="http://purl.org/dc/dcmitype/StillImage" />
        <dc:title></dc:title>
      </cc:Work>
    </rdf:RDF>
  </metadata>
  <g
     inkscape:label="Calque 1"
     inkscape:groupmode="layer"
     id="layer1"
     transform="translate(-7.4613267,-29.241625)">
    <path
       style="opacity:1;fill:url(#linearGradient862);fill-opacity:1;stroke:none;stroke-width:20.00125885;stroke-linecap:butt;stroke-linejoin:round;stroke-miterlimit:4;stroke-dasharray:none;stroke-opacity:1"
       d="m 41.396484,110.51953 c -11.32378,0 -11.450716,0.0266 -12.613281,2.57813 -1.275722,2.7999 -0.471753,4.96014 2.552735,6.85546 1.27992,0.80212 2.461535,0.63218 4.763671,-0.68359 1.934139,-1.10545 5.149484,-1.74628 8.730469,-1.74023 l 5.669922,0.01 14.75,51.24805 C 73.362499,196.97368 80,220.77918 80,221.6875 c 0,0.90833 -2.698705,8.10474 -5.998047,15.99219 -3.299338,7.88744 -5.999342,14.6657 -6,15.06445 -0.002,1.18465 6.404413,-0.35633 7.591797,-1.82617 0.601852,-0.74503 3.526854,-7.42435 6.5,-14.84375 L 87.5,222.58398 l 64.71484,-0.2832 c 55.9388,-0.24376 64.91748,-0.48466 66.20508,-1.78125 1.78464,-1.79708 19.90142,-85.411 19.07227,-88.02344 -0.30729,-0.96817 -1.5561,-2.02861 -2.77539,-2.35547 -1.21928,-0.32688 -40.77301,-0.59948 -87.89844,-0.60742 -80.737577,-0.0128 -85.71184,-0.11467 -86.185548,-1.76367 -3.843839,-13.38063 -4.872074,-16.12672 -6.226562,-16.64648 -0.863471,-0.33135 -6.717956,-0.60352 -13.009766,-0.60352 z m 34.589844,144.40039 a 15,15 0 0 0 -0.529297,0.004 15,15 0 0 0 -14.492187,12.7832 15,15 0 0 0 12.095703,16.96094 15,15 0 0 0 17.380859,-11.48633 l 0.314453,-2.11133 a 15,15 0 0 0 -13.273437,-16.05664 15,15 0 0 0 -1.496094,-0.0937 z m 122.000002,0 a 15,15 0 0 0 -0.52735,0.004 15,15 0 0 0 -14.49414,12.7832 15,15 0 0 0 12.09766,16.96094 15,15 0 0 0 17.37891,-11.48633 l 0.31445,-2.11133 a 15,15 0 0 0 -13.27344,-16.05664 15,15 0 0 0 -1.49609,-0.0937 z m -107.917971,3.59961 2.064453,3.5 2.064454,3.5 h 42.828124 42.82813 l 1.57226,-3.1543 c 0.86528,-1.7345 1.57422,-3.30951 1.57422,-3.5 0,-0.19048 -20.91035,-0.3457 -46.4668,-0.3457 z"
       transform="scale(0.26458333)"
       id="path830"
       inkscape:connector-curvature="0" />
    <path
       style="opacity:1;fill:#261624;fill-opacity:1;stroke:none;stroke-width:20.00125885;stroke-linecap:butt;stroke-linejoin:round;stroke-miterlimit:4;stroke-dasharray:none;stroke-opacity:1"
       d="m 326,140.07227 c -7.68672,-0.0158 -9.1528,0.30854 -15.32812,3.39062 -7.64362,3.81491 -18.66821,14.75216 -23.74219,23.55273 -9.88269,17.14111 -6.84503,49.14122 6.06054,63.83985 3.69744,4.21115 10.59466,8.57439 15.3418,9.70508 25.95251,6.18148 56.72508,-20.9228 56.65039,-49.89649 -0.009,-3.65456 -0.90127,-10.01953 -1.98242,-14.14453 -1.08115,-4.125 -1.97335,-9.01136 -1.98242,-10.85937 -0.0224,-4.39428 -5.43471,-14.45852 -9.39649,-17.47461 -3.87739,-2.95186 -10.45323,-6.3399 -14.25,-7.33985 -1.5792,-0.41594 -6.69609,-0.76361 -11.37109,-0.77343 z m -12.06055,10.03515 c 0.8187,-0.0741 -0.14578,0.86891 -3.43945,2.87696 -3.3,2.0119 -7.9125,5.52372 -10.25,7.80468 -2.3375,2.28095 -4.25,3.61804 -4.25,2.97266 0,-2.15037 5.80264,-7.81617 10.68164,-10.43164 3.83773,-2.05729 6.43912,-3.14858 7.25781,-3.22266 z m 141.38672,2.51953 c -0.65368,-0.0673 -1.87444,0.54032 -4.04101,1.86133 -6.02158,3.67152 -10.57891,17.32231 -8.85352,26.51953 0.40706,2.16973 1.234,3.51172 2.16406,3.51172 2.31912,0 8.16409,-6.88632 11.03321,-13 1.41962,-3.025 3.03977,-6.47631 3.60156,-7.66992 1.42533,-3.02825 0.0959,-9.66941 -1.79102,-8.94531 C 456.59,155.23027 456,154.8552 456,153.98828 c 0,-0.84909 -0.16541,-1.30901 -0.67383,-1.36133 z m -130.70898,3.26172 c 0.88473,0.0567 1.67067,0.24998 2.32031,0.59766 1.15717,0.61926 2.50599,0.87636 2.99805,0.57226 1.81297,-1.12047 7.12781,4.8108 10.56054,11.78516 6.73195,13.67747 8.30376,31.55741 3.69141,41.98437 -2.39121,5.40572 -6.85145,8.0879 -17.04297,10.24805 -3.65419,0.77452 -7.28951,1.41596 -8.07812,1.42578 -0.78861,0.01 -3.54553,-2.17149 -6.125,-4.84765 -7.26519,-7.5375 -9.39196,-14.9072 -9.41993,-32.63477 -0.015,-9.53815 0.40826,-15.01668 1.32618,-17.19141 2.56955,-6.08774 13.57639,-12.33614 19.76953,-11.93945 z m 355.51172,12.63086 c -1.05642,0 -3.25877,1.52199 -4.89258,3.38281 -2.85793,3.25497 -3.32646,3.41126 -12.35352,4.11524 -10.66847,0.832 -19.62934,3.75781 -27.54492,8.99219 -5.78706,3.82681 -16.25001,15.45634 -19.32031,21.47461 -2.70157,5.29535 -2.6551,12.86444 0.11133,18.2871 4.00762,7.85558 15.94234,17.78867 25.71484,21.4004 7.11651,2.63011 14.26568,0.14359 27.15625,-9.44141 12.73686,-9.4707 18,-15.21995 18,-19.66211 0,-2.47467 -2.19993,-1.77263 -6.45508,2.05859 -10.17675,9.16281 -26.62228,12.95408 -36.16211,8.33594 C 639.68747,225.18991 629,212.89601 629,209.76758 c 0,-3.98934 10.20513,-14.35235 19.49219,-19.79492 4.91376,-2.87967 10.01664,-2.6455 15.53906,0.71289 l 3.17773,1.93164 -0.35351,8.57617 c -0.30119,7.28323 -0.0941,8.74353 1.375,9.68359 1.44079,0.92194 2.56123,0.28855 6.70703,-3.79492 4.20522,-4.142 4.74334,-5.07489 3.46484,-6.00976 -1.28488,-0.93956 -1.33653,-1.85805 -0.33593,-6.08008 0.64819,-2.73497 1.74882,-6.09766 2.44531,-7.47266 0.69645,-1.375 1.32789,-6.2125 1.40234,-10.75 0.12325,-7.51686 -0.0351,-8.25 -1.78515,-8.25 z m -197.39844,5.4668 c -0.84096,0.0899 -2.87854,1.46544 -4.89844,3.34961 -3.70813,3.45891 -4.28199,4.59982 -4.92969,9.79883 -1.98531,15.93567 -0.066,56.18485 2.72266,57.09961 0.61826,0.20279 2.48592,-0.77719 4.15039,-2.17774 l 3.02539,-2.54687 1.04688,3.0039 h -0.002 c 1.39348,3.99732 3.93044,3.86196 8.09571,-0.43555 3.65767,-3.77371 3.67943,-4.2955 0.59375,-15.4375 -0.81918,-2.95801 -1.78517,-9.9504 -2.14649,-15.53906 l -0.6582,-10.16015 5.88476,-3.08203 c 8.88994,-4.65449 11.67533,-4.89302 15.25586,-1.3125 3.25244,3.25243 6.71825,12.54672 7.63282,20.47265 0.52248,4.52809 -0.79891,11.78302 -4.07618,22.39649 -0.67373,2.18194 -0.50117,2.35103 1.92774,1.88671 2.00156,-0.38262 2.60316,-0.13305 2.40625,1 -0.5435,3.12593 2.16935,2.12783 8.14648,-2.99414 l 6.17188,-5.28906 -0.77149,-5 c -0.42516,-2.75 -0.73392,-7.025 -0.68554,-9.5 0.15821,-8.13258 -1.6521,-26.4013 -3.12891,-31.57422 -2.15546,-7.54999 -4.01967,-8.80186 -12.22461,-8.20898 -7.21935,0.52167 -16.09462,4.24045 -22.01562,9.22265 -1.67388,1.40846 -3.20461,2.56176 -3.40039,2.5625 -0.19389,7.6e-4 -0.20032,-2.47425 -0.0117,-5.5 0.37515,-6.02519 -0.53646,-6.80495 -4.61914,-3.94531 -2.19984,1.53953 -2.22266,1.50666 -2.22266,-2.9414 0,-2.47374 -0.44247,-4.77057 -0.98438,-5.10547 -0.0677,-0.0419 -0.16501,-0.0558 -0.28515,-0.043 z m -68.39453,8.87109 c -4.82759,-0.0922 -11.74718,2.5522 -17.22071,6.72852 l -5.38671,4.10937 0.49218,-5.11328 c 0.4735,-4.92788 0.42362,-5.05054 -1.36523,-3.43164 -1.71681,1.55365 -1.85547,1.55471 -1.85547,0.0234 0,-2.07831 -1.36341,-2.12639 -3.03906,-0.10742 -0.91782,1.10592 -1.48786,1.21883 -1.9961,0.39648 -0.51877,-0.83943 -1.25733,-0.85677 -2.73046,-0.0684 -2.57243,1.37671 -7.23438,6.88453 -7.23438,8.54688 0,0.69756 -0.9,2.08263 -2,3.07812 -2.53896,2.29775 -2.55428,5.9408 -0.0879,20.62109 1.05151,6.25874 2.19794,15.20391 2.54883,19.87891 0.7314,9.74507 2.12743,15 3.98242,15 0.70817,0 2.43165,-0.9 3.83008,-2 2.85823,-2.2483 3.72656,-2.47324 3.72656,-0.96484 0,0.56935 0.72697,2.14435 1.61523,3.5 2.28065,3.48071 4.60137,3.07441 8.76758,-1.53711 3.71615,-4.1133 4.16504,-5.11622 2.86719,-6.41406 -0.4125,-0.41251 -0.77224,-1.05132 -0.79492,-1.41797 -0.0242,-0.36667 -0.62594,-3.00775 -1.33789,-5.86914 -0.71214,-2.8614 -1.00372,-5.67298 -0.64844,-6.24805 0.35535,-0.57506 -0.50334,-4.47155 -1.91016,-8.66016 C 393.15178,218.71958 392,213.14899 392,210.5293 c 0,-4.75394 0.01,-4.76765 4.93555,-6.88672 5.45975,-2.34869 13.50516,-2.79108 17.51757,-0.96289 1.40092,0.63828 2.54688,1.46642 2.54688,1.83984 0,0.37343 1.12497,1.19186 2.5,1.81836 1.37499,0.62649 2.5,1.82337 2.5,2.66016 0,3.13446 3.10478,1.36063 5.21289,-2.97852 1.20246,-2.475 2.7709,-4.5 3.48633,-4.5 1.78284,0 1.63404,-4.12827 -0.32617,-9.02734 -1.2562,-3.1395 -2.68285,-4.5992 -6.25,-6.39649 -2.54223,-1.28089 -6.07713,-2.64483 -7.85547,-3.02929 -0.5939,-0.1284 -1.24199,-0.19581 -1.93164,-0.20899 z m 309.42773,0.0469 c -2.68265,-0.002 -4.16789,0.56939 -7.31836,2.01172 -6.67786,3.05723 -17.04123,13.48338 -21.21289,21.34179 -6.87095,12.94323 -5.90333,26.65606 2.42774,34.40235 3.52029,3.27321 10.69941,6.97927 15.33984,7.91992 1.92503,0.39021 8.12964,0.76099 13.78906,0.82422 12.42036,0.13881 14.76337,-0.83343 24.21094,-10.05274 5.82437,-5.68364 6.75433,-7.15277 8.94336,-14.14062 2.81114,-8.97364 2.40448,-12.05777 -3.0332,-23.04688 -5.89467,-11.91261 -13.39178,-17.2202 -26.40821,-18.69922 -3.08935,-0.35103 -5.12869,-0.55927 -6.73828,-0.56054 z m -150.62305,0.0801 c -7.2229,-0.0418 -11.08315,2.41183 -19.17578,10.43945 -9.13065,9.05731 -13.84443,17.68307 -14.67578,26.85156 -1.24913,13.77526 7.13599,24.78501 21.44532,28.15625 6.17966,1.4559 23.90274,1.26686 27.64062,-0.29492 1.82064,-0.76071 6.48009,-4.47321 10.35547,-8.25 5.5361,-5.39527 7.52447,-8.15303 9.27734,-12.86719 2.58951,-6.96422 2.80807,-12.92895 0.64649,-17.65625 -0.84114,-1.8395 -2.17892,-4.91875 -2.97266,-6.84375 -4.51994,-10.96208 -13.98334,-17.69361 -26.91016,-19.14453 -2.1182,-0.23775 -3.96403,-0.38098 -5.63086,-0.39062 z m -119.65429,0.70117 c -0.61713,0.0125 -1.97285,0.90476 -4.94141,2.9082 -7.98527,5.38921 -8.49902,7.58691 -7.50976,32.05859 1.00414,24.83881 1.57364,28.76572 4.33984,29.88282 1.16855,0.47192 2.70107,0.8871 3.40625,0.92187 2.84496,0.14066 8.10496,-2.92206 10.57031,-6.1543 l 2.61524,-3.42968 -1.56836,-7.42578 c -0.99092,-4.6916 -1.73538,-14.77748 -2.02149,-27.38282 -0.24922,-10.97513 -0.64987,-20.15183 -0.89062,-20.39257 -0.24072,-0.24075 -1.12459,0.1324 -1.96289,0.82812 -1.25923,1.0449 -1.52344,0.98281 -1.52344,-0.35742 0,-0.94387 -0.0337,-1.46677 -0.51367,-1.45703 z m 263.87109,14.98047 c 8.70643,-0.0552 21.16667,6.36346 27.58985,15.09765 2.9755,4.04608 3.85892,8.49107 2.42773,12.22071 -0.9583,2.49724 -9.42982,6.33883 -16.51367,7.48828 -3.49901,0.56775 -6.58618,0.98577 -6.86133,0.92968 -0.275,-0.0561 -2.45508,-0.48691 -4.8457,-0.95703 -13.80624,-2.71507 -19.05935,-14.22018 -12.35352,-27.05664 1.53993,-2.94773 3.90241,-5.91764 5.25,-6.59961 1.48889,-0.75348 3.29747,-1.1103 5.30664,-1.12304 z m -150.71484,0.39843 c 7.54428,0.058 15.50417,3.64829 22.46875,10.13477 5.18226,4.82654 7.88867,9.4121 7.88867,13.36523 0,3.34492 -5.14677,7.66033 -11.10156,9.30664 -11.32029,3.12973 -19.85343,2.69377 -26.39258,-1.34765 C 555.89237,228.29018 552,221.47639 552,217.38281 c 0,-4.06332 2.85954,-11.27033 5.92969,-14.94531 2.66577,-3.19094 3.24493,-3.41504 8.71289,-3.37305 z M 353,210.28125 c 0,0.17464 -0.87942,2.03988 -1.95312,4.14453 -2.85838,5.60288 -6.69225,9.80115 -11.55079,12.64844 -2.54062,1.48891 -6.47628,2.71357 -9.64453,3.00195 l -5.35156,0.48828 6,-2.25976 c 4.68301,-1.76334 7.81086,-4.0231 14.25,-10.29883 4.5375,-4.42235 8.25,-7.89926 8.25,-7.72461 z"
       transform="scale(0.26458333)"
       id="path835"
       inkscape:connector-curvature="0" />
  </g>
</svg>
